#!OML:ASF H:\Terrain\Patient Classification 1\Walking\liu\liu.ASF
:FULLY-SPECIFIED
:DEGREES
356
root 9.269330 17.079201 14.168300 6.590900 8.528720 -2.180270
lowerback -62.253700 -21.747898 -9.480610
upperback -14.636200 -29.025099 28.858500
thorax 21.756699 -14.582601 32.736599
lowerneck -195.174011 -60.158401 -133.233994
upperneck 204.585999 -78.739304 141.083008
head 109.654999 -30.528700 61.754299
rclavicle 0.000000 0.000000
rhumerus -416.558990 127.186005 -848.973022
rradius 393.088013
rwrist -227.492004
rhand -305.687988 -282.929016
rfingers 71.250198
rthumb -38.667301 -582.375977
lclavicle 0.000000 0.000000
lhumerus -379.687012 -214.400009 996.776001
lradius 252.735001
lwrist 72.205597
lhand -100.728996 -197.668991
lfingers 71.250198
lthumb 159.134003 95.992699
rfemur -230.730988 42.134499 269.138000
rtibia 327.734985
rfoot -144.905991 13.215800
rtoes -112.062996
lfemur -163.906998 80.137398 -142.557007
ltibia 642.208984
lfoot -45.881500 111.773994
ltoes -48.993103
357
root 9.265800 17.086901 14.287000 6.525390 8.205210 -2.220000
lowerback -61.366501 -20.042200 -8.895890
upperback -13.168200 -26.807699 28.487501
thorax 22.586201 -13.493700 32.213600
lowerneck -198.355011 -60.748299 -132.880005
upperneck 205.151993 -79.313698 140.923004
head 110.549004 -30.656099 61.544498
rclavicle 0.000000 -0.000000
rhumerus -409.287994 134.709000 -850.238037
rradius 395.910980
rwrist -228.181992
rhand -300.880005 -262.130005
rfingers 71.250198
rthumb -34.024799 -561.656006
lclavicle 0.000000 -0.000000
lhumerus -387.319000 -223.970001 999.890991
lradius 258.277008
lwrist 87.888405
lhand -117.396004 -200.153992
lfingers 71.250198
lthumb 143.080002 94.716599
rfemur -224.220001 46.183899 270.436981
rtibia 325.151001
rfoot -148.363007 11.953200
rtoes -122.712006
lfemur -178.027008 78.783997 -145.526001
ltibia 646.044006
lfoot -56.706902 107.741005
ltoes -42.745701
358
root 9.267740 17.092300 14.413100 6.423040 7.906170 -2.196570
lowerback -60.041199 -18.031599 -8.157579
upperback -12.670099 -24.159700 27.803099
thorax 22.130100 -12.165600 31.342400
lowerneck -197.964996 -61.179802 -133.794998
upperneck 205.772995 -79.757904 140.944992
head 110.818008 -30.940800 61.664501
rclavicle 0.000000 0.000000
rhumerus -405.988007 140.621994 -851.072021
rradius 400.746002
rwrist -229.575989
rhand -301.895020 -271.640991
rfingers 71.250198
rthumb -35.004398 -571.151001
lclavicle 0.000000 0.000000
lhumerus -396.528992 -225.957001 1000.690002
lradius 264.622009
lwrist 92.867004
lhand -137.859009 -206.825012
lfingers 71.250198
lthumb 123.356003 89.336502
rfemur -217.246002 48.044399 271.156006
rtibia 322.657013
rfoot -150.931992 12.534200
rtoes -124.371994
lfemur -189.973999 76.720200 -150.296997
ltibia 648.006958
lfoot -66.124802 107.995995
ltoes -47.552399
359
root 9.265720 17.089500 14.529900 6.408350 7.656680 -2.412340
lowerback -58.009399 -16.475101 -6.231200
upperback -14.364300 -22.161501 28.360001
thorax 19.076401 -11.117100 31.077599
lowerneck -193.988983 -60.780502 -135.214996
upperneck 205.904007 -79.573105 142.149002
head 110.193008 -30.987598 62.436699
rclavicle -0.000000 -0.000000
rhumerus -405.088989 144.985001 -851.776978
rradius 404.716980
rwrist -228.889008
rhand -305.441010 -279.984009
rfingers 71.250198
rthumb -38.428799 -579.434998
lclavicle -0.000000 -0.000000
lhumerus -406.432983 -221.604004 999.890991
lradius 268.360016
lwrist 90.586899
lhand -146.514999 -212.673004
lfingers 71.250198
lthumb 115.008003 83.971901
rfemur -211.959991 49.817398 274.667999
rtibia 320.252991
rfoot -153.483002 12.875299
rtoes -125.347992
lfemur -203.997986 76.263100 -151.748993
ltibia 649.021973
lfoot -72.389801 109.301994
ltoes -51.917301
360
root 9.268170 17.092800 14.642100 6.451420 7.447120 -2.516700
lowerback -57.805000 -15.229300 -5.362730
upperback -13.525300 -20.578300 28.756500
thorax 19.716299 -10.335501 31.114399
lowerneck -195.863983 -60.969398 -135.459991
upperneck 206.152008 -79.548004 142.149994
head 110.653999 -30.922600 62.487503
rclavicle 0.000000 -0.000000
rhumerus -397.332001 149.976990 -851.122986
rradius 406.488007
rwrist -228.486008
rhand -303.820984 -261.867004
rfingers 71.250198
rthumb -36.864300 -561.346008
lclavicle 0.000000 -0.000000
lhumerus -410.696991 -220.170990 998.898987
lradius 269.993988
lwrist 94.521301
lhand -148.830002 -217.989014
lfingers 71.250198
lthumb 112.776001 78.779503
rfemur -206.329987 51.675400 276.497009
rtibia 318.122009
rfoot -158.029999 14.686600
rtoes -123.050003
lfemur -219.065002 74.411804 -154.128998
ltibia 648.839050
lfoot -78.247398 109.083008
ltoes -42.039902
361
root 9.277850 17.099800 14.770900 6.466980 7.288030 -2.288820
lowerback -59.793800 -13.876400 -6.587740
upperback -10.220300 -18.770800 27.840199
thorax 24.134501 -9.503480 30.913799
lowerneck -203.838013 -61.878098 -132.916000
upperneck 208.645004 -79.723099 137.690002
head 112.798004 -30.986000 60.342697
rclavicle 0.000000 0.000000
rhumerus -386.650024 155.906006 -849.531006
rradius 410.465027
rwrist -230.807007
rhand -300.755981 -255.589996
rfingers 71.250198
rthumb -33.904499 -555.117981
lclavicle 0.000000 0.000000
lhumerus -412.872009 -222.749008 998.767029
lradius 273.454010
lwrist 104.889000
lhand -153.248993 -221.895996
lfingers 71.250198
lthumb 108.513000 75.100098
rfemur -199.498993 51.576599 274.727997
rtibia 316.028992
rfoot -162.646011 16.795000
rtoes -123.935005
lfemur -232.248993 70.234802 -160.438995
ltibia 647.377014
lfoot -85.517197 109.645996
ltoes -37.323002
362
root 9.279490 17.093000 14.894600 6.564460 7.077550 -2.140770
lowerback -58.780399 -13.637100 -7.972870
upperback -13.912801 -18.256500 26.826601
thorax 19.741100 -9.180870 30.749901
lowerneck -195.795990 -59.407303 -128.999008
upperneck 210.928986 -77.609703 133.647003
head 111.358002 -30.448999 58.579704
rclavicle 0.000000 0.000000
rhumerus -390.411011 163.218002 -853.666992
rradius 417.575989
rwrist -232.697998
rhand -301.881012 -264.174988
rfingers 71.250198
rthumb -34.991199 -563.684998
lclavicle 0.000000 0.000000
lhumerus -427.987000 -216.112000 997.922974
lradius 278.979004
lwrist 110.061996
lhand -153.634995 -221.714996
lfingers 71.250198
lthumb 108.141006 75.301399
rfemur -194.662003 52.957302 274.178009
rtibia 314.277985
rfoot -166.336990 15.770700
rtoes -130.417999
lfemur -246.414001 67.399200 -165.533005
ltibia 645.726013
lfoot -93.722000 110.556000
ltoes -48.906597
363
root 9.281560 17.083700 15.006500 6.638060 6.801240 -2.321110
lowerback -56.887001 -12.140800 -5.508740
upperback -15.844899 -16.343500 26.417501
thorax 16.500299 -8.170980 29.140999
lowerneck -194.345001 -59.583504 -128.486008
upperneck 212.535995 -78.497498 134.089005
head 111.810997 -30.806900 58.584801
rclavicle 0.000000 -0.000000
rhumerus -389.076996 166.468994 -855.364014
rradius 422.825989
rwrist -232.656998
rhand -304.666992 -266.924988
rfingers 71.250198
rthumb -37.681202 -566.390015
lclavicle 0.000000 -0.000000
lhumerus -435.993011 -210.457001 993.295959
lradius 281.929993
lwrist 107.597000
lhand -146.425995 -220.445007
lfingers 71.250198
lthumb 115.094002 76.195206
rfemur -189.775009 55.968700 276.789001
rtibia 313.266998
rfoot -172.779007 15.893001
rtoes -142.242004
lfemur -260.751984 66.742004 -166.846008
ltibia 643.511963
lfoot -100.573997 110.764000
ltoes -56.567604
364
root 9.284660 17.080700 15.127200 6.521180 6.461030 -2.505330
lowerback -56.764900 -10.648700 -3.507730
upperback -14.246401 -14.507101 26.623600
thorax 17.931900 -7.270860 28.346401
lowerneck -199.263000 -60.037197 -125.032997
upperneck 215.914993 -78.711197 129.277008
head 113.657997 -30.974600 56.185898
rclavicle -0.000000 -0.000000
rhumerus -382.260010 170.839005 -855.111023
rradius 425.642029
rwrist -231.921997
rhand -304.454010 -275.085999
rfingers 71.250198
rthumb -37.476101 -574.552979
lclavicle -0.000000 -0.000000
lhumerus -438.489990 -205.207993 987.947021
lradius 283.264008
lwrist 104.796997
lhand -140.178009 -221.298996
lfingers 71.250198
lthumb 121.119003 74.995598
rfemur -183.600998 59.350201 279.537994
rtibia 312.940002
rfoot -177.953003 16.831200
rtoes -150.087006
lfemur -271.983002 66.854103 -167.691986
ltibia 639.692017
lfoot -107.921997 110.070000
ltoes -54.172401
365
root 9.284940 17.074400 15.252300 6.371360 6.146610 -2.460440
lowerback -59.329102 -9.178300 -4.840080
upperback -8.956640 -12.624701 27.174500
thorax 24.755800 -6.434500 29.739599
lowerneck -209.060989 -61.600998 -124.009003
upperneck 218.248001 -79.203499 125.123993
head 116.259003 -31.243301 54.334999
rclavicle -0.000000 -0.000000
rhumerus -367.651001 174.776993 -850.747009
rradius 425.547974
rwrist -231.271988
rhand -299.470001 -286.998016
rfingers 71.250198
rthumb -32.662598 -586.544983
lclavicle -0.000000 -0.000000
lhumerus -435.186005 -201.895004 984.636963
lradius 284.319000
lwrist 108.923996
lhand -140.212006 -222.472000
lfingers 71.250198
lthumb 121.086998 73.824203
rfemur -177.481003 60.288803 280.333984
rtibia 312.282990
rfoot -177.942017 18.637299
rtoes -133.979996
lfemur -282.023987 65.432602 -170.572998
ltibia 634.546997
lfoot -120.424995 110.026001
ltoes -49.610802
366
root 9.288380 17.068701 15.373400 6.345380 5.877770 -2.235250
lowerback -60.170498 -7.894400 -7.348170
upperback -6.786680 -10.793000 26.770201
thorax 27.400801 -5.586170 30.870199
lowerneck -205.925003 -61.889400 -131.078995
upperneck 212.525009 -79.468201 133.957993
head 114.326004 -31.055201 58.758999
rclavicle -0.000000 -0.000000
rhumerus -357.829010 176.658005 -847.675049
rradius 425.341003
rwrist -229.876999
rhand -295.826996 -284.610992
rfingers 71.250198
rthumb -29.144299 -584.210022
lclavicle -0.000000 -0.000000
lhumerus -437.272980 -199.797989 983.380981
lradius 285.610016
lwrist 114.053001
lhand -141.130005 -222.973007
lfingers 71.250198
lthumb 120.201996 73.375702
rfemur -171.315002 60.012897 278.660004
rtibia 310.976013
rfoot -178.684998 20.930801
rtoes -116.500999
lfemur -293.072998 63.402199 -175.606995
ltibia 628.320007
lfoot -134.693008 112.788002
ltoes -37.575001
367
root 9.292600 17.061001 15.484200 6.393450 5.578130 -2.571520
lowerback -58.351002 -6.070680 -3.711550
upperback -9.011020 -8.540120 27.148098
thorax 23.905899 -4.378820 29.413399
lowerneck -194.692001 -60.325699 -136.055008
upperneck 205.962006 -78.562897 142.263000
head 110.224998 -30.546801 62.800797
rclavicle 0.000000 -0.000000
rhumerus -358.101013 177.561005 -848.031006
rradius 429.845001
rwrist -228.677002
rhand -299.890991 -264.799988
rfingers 71.250198
rthumb -33.069099 -564.341003
lclavicle 0.000000 -0.000000
lhumerus -447.310974 -198.824005 984.387939
lradius 287.755005
lwrist 121.500999
lhand -141.923004 -222.682007
lfingers 71.250198
lthumb 119.435997 73.710495
rfemur -166.947006 61.529198 283.029999
rtibia 309.374023
rfoot -182.231995 19.148600
rtoes -139.796005
lfemur -306.252014 63.624100 -174.423996
ltibia 621.980042
lfoot -134.815994 115.523003
ltoes -56.071800
368
root 9.295440 17.057600 15.595900 6.356810 5.265870 -3.022420
lowerback -57.230202 -3.520140 0.611272
upperback -9.059530 -5.408420 27.926100
thorax 23.026400 -2.775310 28.029001
lowerneck -197.066010 -61.368401 -130.656998
upperneck 209.237000 -79.647499 134.102005
head 111.401993 -31.410501 58.621101
rclavicle 0.000000 -0.000000
rhumerus -354.631989 174.902985 -845.999023
rradius 434.552979
rwrist -225.744995
rhand -304.696014 -247.894989
rfingers 71.250198
rthumb -37.709301 -547.359009
lclavicle 0.000000 -0.000000
lhumerus -453.125000 -200.365997 985.848022
lradius 288.753998
lwrist 131.289993
lhand -144.158005 -221.667999
lfingers 71.250198
lthumb 117.281998 74.848396
rfemur -161.980988 63.000202 289.342010
rtibia 307.364990
rfoot -187.337006 17.646101
rtoes -171.959000
lfemur -318.092010 62.976398 -171.776001
ltibia 614.164978
lfoot -139.283997 118.565994
ltoes -71.415703
